<svg width="1560" height="520" viewBox="0 0 1560 520" fill="none" xmlns="http://www.w3.org/2000/svg">
<g transform="translate(0,158.0)">
<path d="M0 21.7982C31.1288 7.92663 67.1232 0 105.505 0C143.867 0 179.871 7.92663 211 21.7982C198.35 126.404 144.82 180.291 105.505 204C94.2694 197.23 4.95305 137.155 0 21.7982Z" fill="black"/>
<path fill-rule="evenodd" clip-rule="evenodd" d="M0 21.7982C31.1288 7.92663 67.1232 0 105.505 0C143.867 0 179.871 7.92663 211 21.7982C198.447 125.602 145.637 179.462 106.411 203.45C102.482 197.521 98.5981 191.565 94.9006 185.496C83.0231 166.008 76.1632 145.023 77.5599 121.87C77.6531 120.303 77.74 118.737 77.8368 116.99C77.8893 116.043 77.9447 115.044 78.0057 113.963C77.7212 114.401 77.4758 114.774 77.2581 115.105L77.2581 115.105L77.2577 115.106C76.8464 115.731 76.5338 116.206 76.2424 116.691C69.3131 128.213 63.7904 140.374 59.4516 153.089C58.4857 155.922 57.6693 158.782 57.1666 161.684C52.0524 155.845 46.8898 149.407 41.8675 142.367C48.1311 131.767 54.9797 121.495 63.5031 112.145C63.1672 112.209 62.9272 112.248 62.7481 112.277C62.4705 112.322 62.3396 112.343 62.2252 112.397C52.0329 117.204 42.322 122.801 33.1846 129.313C31.285 126.241 29.4249 123.075 27.6162 119.814C36.8221 115.169 46.2864 111.009 55.7497 106.85L55.7498 106.85L55.7503 106.849C60.1679 104.908 64.5854 102.966 68.9762 100.975C72.9026 99.193 76.8783 97.5259 80.8533 95.8591L80.8538 95.8589C82.6551 95.1036 84.4561 94.3484 86.2524 93.5825C83.9641 93.7113 81.7947 94.1222 79.6253 94.5679C60.3162 98.5167 41.6624 104.631 23.3325 111.712C20.9831 107.042 18.7472 102.195 16.6551 97.1705C40.222 89.2084 64.1787 82.581 88.8776 78.5099C95.6533 77.3958 102.657 77.168 109.537 77.3265C115.679 77.4701 119.463 81.9363 119.998 88.1108C120.061 88.8471 120.173 89.5767 120.289 90.3339L120.289 90.334L120.289 90.3346C120.346 90.7076 120.404 91.0873 120.458 91.4778C129.953 87.0115 134.505 81.8769 135.337 74.4447C136.273 66.0421 134.213 57.5751 125.411 53.198C123.564 52.2796 121.71 51.3746 119.855 50.4694L119.854 50.469L119.854 50.4689C117.05 49.1001 114.245 47.7311 111.463 46.3155C110.681 45.9194 109.75 45.1717 109.547 44.4092C108.492 40.4282 106.005 37.596 102.711 35.358C95.9654 30.7779 88.6002 27.5347 80.6803 25.6432C65.7518 22.0781 50.6549 23.1477 35.6768 24.8411C23.7401 26.1912 12.1242 29.2456 0.775132 33.1994C0.426246 29.461 0.165837 25.6606 0 21.7982Z" fill="#FACD33"/>
<path fill-rule="evenodd" clip-rule="evenodd" d="M277.6 27.9004H318.9L400 176.9H356.7L350 164.9L341 149.4L340.3 147.9H253.3L237.5 176.9H195.1L277.6 27.9004ZM271.2 114.9H323.4L297.4 66.6004L271.2 114.9Z" fill="black"/>
<path fill-rule="evenodd" clip-rule="evenodd" d="M674.5 28.0996H715.8L796.5 176.9H750.5L736.1 147.9H651.6L635.5 177.1H592L674.5 28.0996ZM669.8 114.9H719.6L696 67.3996L669.8 114.9Z" fill="black"/>
<path d="M582.1 176.7H544.5L447.9 79.7004L447.3 176.9H410V27.9004H448.1L544.8 125.2L545.3 27.9004H582.9L582.1 176.7Z" fill="black"/>
<path d="M944.8 143.9L943.7 176.6L807 176.9V27.9004H844V143.9H944.8Z" fill="black"/>
<path d="M1019.5 125L1019.2 176.6H982L982.3 125L902.4 27.9004H952.4L1001.2 90.5004L1050.9 27.9004H1100.7L1019.5 125Z" fill="black"/>
<path fill-rule="evenodd" clip-rule="evenodd" d="M1247.9 110.1C1250.2 115.7 1251.2 121.9 1251.2 128.9C1251.3 134.5 1250.6 139.7 1249.2 144.7C1247.5 151.5 1244.4 158.4 1239.8 163.8C1232.7 172.5 1223 176.6 1210.7 176.6C1210.5 176.6 1210.4 176.6 1210.2 176.6H1100.8H1098.2V143.9H1212.5C1214 143.3 1215.4 142 1216.6 140.6C1218.7 138 1219.8 135 1219.7 131.5C1219.7 128 1218.6 124.9 1216.5 122.4C1214.4 119.8 1211.9 118.5 1208.9 118.5H1139.1C1127.2 118.5 1115.9 116.4 1108.3 107.4C1104.6 103 1102.5 99.1 1101.1 94.5C1098.8 88.9 1097.8 82.7 1097.8 75.7C1097.7 70.1 1098.4 64.9 1099.8 59.9C1101.5 53.1 1104.6 46.2 1109.2 40.8C1116.3 32.1 1126 28 1138.3 28C1138.5 28 1138.6 28 1138.8 28H1250.6V60.9H1218.4H1136.5C1135 61.5 1133.7 62.6 1132.5 64C1130.4 66.6 1129.4 69.6 1129.4 73.1C1129.4 76.6 1130.6 79.7 1132.6 82.2C1134.7 84.8 1137.2 86.1 1140.2 86.1H1210C1221.9 86.1 1233.2 88.2 1240.8 97.2C1244.4 101.6 1246.5 105.5 1247.9 110.1Z" fill="black"/>
<path d="M1419 27.9004H1261V60.9004H1419V27.9004Z" fill="black"/>
<path d="M1359 27.9004H1321V176.9H1359V27.9004Z" fill="black"/>
<path fill-rule="evenodd" clip-rule="evenodd" d="M1526.9 176.9H1485.2C1485.2 176.4 1485.1 174 1485.1 173.6C1485.1 161.1 1485.1 148.5 1485.1 136C1485.1 129.7 1485.1 123.5 1485.1 117.2C1485.1 104.9 1485.1 100.6 1485.1 96.3C1485.1 92.1 1485.1 88 1485.1 76.5L1444 85.9V83.4C1443.9 82.2 1444 82.4 1444 82.7C1444 82.9 1444 83.1 1444 83C1444 81.8 1444 80.5 1444 79.3C1444 78.7 1444 78.1 1444 77.5C1444 69.6 1444 61.6 1444 53.7C1444 53.6 1444 53.6 1444 53.5C1444 53.4 1444 53.2 1444 53.1C1444 52.3 1444 52.3 1444.8 52L1502.2 27.3C1502.8 27.1 1503.4 27 1504 27C1504.8 27 1520 27 1525.2 27C1526.2 27 1526.8 27 1526.9 27C1527.2 27.7 1527.1 177.9 1526.9 176.9Z" fill="#FACD33"/>
<path fill-rule="evenodd" clip-rule="evenodd" d="M1549 47.9004C1554 47.9004 1558 43.9004 1558 38.9004C1558 33.9004 1554 29.9004 1549 29.9004C1544 29.9004 1540 33.9004 1540 38.9004C1540 43.9004 1544 47.9004 1549 47.9004ZM1549 49.9004C1555.1 49.9004 1560 45.0004 1560 38.9004C1560 32.8004 1555.1 27.9004 1549 27.9004C1542.9 27.9004 1538 32.8004 1538 38.9004C1538 45.0004 1542.9 49.9004 1549 49.9004Z" fill="#FACD33"/>
<path d="M1543 45.5004V31.9004H1548.8C1550.3 31.9004 1551.3 32.0004 1552 32.3004C1552.7 32.5004 1553.2 33.0004 1553.6 33.6004C1554 34.2004 1554.2 34.9004 1554.2 35.7004C1554.2 36.7004 1553.9 37.6004 1553.3 38.2004C1552.7 38.9004 1551.8 39.3004 1550.6 39.5004C1551.2 39.8004 1551.7 40.2004 1552.1 40.6004C1552.5 41.0004 1553 41.8004 1553.7 42.8004L1555.4 45.5004H1552.1L1550.1 42.5004C1549.4 41.4004 1548.9 40.8004 1548.7 40.5004C1548.4 40.2004 1548.2 40.0004 1547.9 39.9004C1547.6 39.8004 1547.1 39.7004 1546.5 39.7004H1545.9V45.4004H1543V45.5004ZM1545.8 37.6004H1547.8C1549.1 37.6004 1549.9 37.5004 1550.3 37.4004C1550.6 37.3004 1550.9 37.1004 1551.1 36.8004C1551.3 36.5004 1551.4 36.2004 1551.4 35.8004C1551.4 35.3004 1551.3 35.0004 1551 34.7004C1550.8 34.4004 1550.4 34.2004 1550 34.2004C1549.8 34.2004 1549.1 34.2004 1548 34.2004H1545.9V37.6004H1545.8Z" fill="#FACD33"/>
</g>
</svg>
